<mxfile host="Electron" modified="2024-01-21T12:31:24.631Z" agent="Mozilla/5.0 (Windows NT 10.0; Win64; x64) AppleWebKit/537.36 (KHTML, like Gecko) draw.io/21.6.5 Chrome/114.0.5735.243 Electron/25.3.1 Safari/537.36" etag="xN-X6RzycQGV8AfxCQ9c" version="21.6.5" type="device">
  <diagram name="Page-1" id="Q4uE_7egaZNRWRMJCY4N">
    <mxGraphModel dx="1430" dy="830" grid="1" gridSize="10" guides="1" tooltips="1" connect="1" arrows="1" fold="1" page="1" pageScale="1" pageWidth="850" pageHeight="1100" math="0" shadow="0">
      <root>
        <mxCell id="0" />
        <mxCell id="1" parent="0" />
        <mxCell id="jwUTels5Vg4gQr-75ilC-9" value="" style="edgeStyle=orthogonalEdgeStyle;rounded=0;orthogonalLoop=1;jettySize=auto;html=1;" edge="1" parent="1" source="jwUTels5Vg4gQr-75ilC-1" target="jwUTels5Vg4gQr-75ilC-2">
          <mxGeometry relative="1" as="geometry" />
        </mxCell>
        <mxCell id="jwUTels5Vg4gQr-75ilC-1" value="Member gets banned in guild" style="rounded=0;whiteSpace=wrap;html=1;" vertex="1" parent="1">
          <mxGeometry x="160" y="160" width="120" height="60" as="geometry" />
        </mxCell>
        <mxCell id="jwUTels5Vg4gQr-75ilC-4" value="" style="edgeStyle=orthogonalEdgeStyle;rounded=0;orthogonalLoop=1;jettySize=auto;html=1;" edge="1" parent="1" source="jwUTels5Vg4gQr-75ilC-2" target="jwUTels5Vg4gQr-75ilC-3">
          <mxGeometry relative="1" as="geometry" />
        </mxCell>
        <mxCell id="jwUTels5Vg4gQr-75ilC-5" value="No" style="edgeLabel;html=1;align=center;verticalAlign=middle;resizable=0;points=[];" vertex="1" connectable="0" parent="jwUTels5Vg4gQr-75ilC-4">
          <mxGeometry x="-0.0246" relative="1" as="geometry">
            <mxPoint as="offset" />
          </mxGeometry>
        </mxCell>
        <mxCell id="jwUTels5Vg4gQr-75ilC-11" value="" style="edgeStyle=orthogonalEdgeStyle;rounded=0;orthogonalLoop=1;jettySize=auto;html=1;" edge="1" parent="1" source="jwUTels5Vg4gQr-75ilC-2" target="jwUTels5Vg4gQr-75ilC-10">
          <mxGeometry relative="1" as="geometry" />
        </mxCell>
        <mxCell id="jwUTels5Vg4gQr-75ilC-14" value="Yes" style="edgeLabel;html=1;align=center;verticalAlign=middle;resizable=0;points=[];" vertex="1" connectable="0" parent="jwUTels5Vg4gQr-75ilC-11">
          <mxGeometry x="0.0575" relative="1" as="geometry">
            <mxPoint as="offset" />
          </mxGeometry>
        </mxCell>
        <mxCell id="jwUTels5Vg4gQr-75ilC-2" value="Is BanSync&lt;br&gt;Enabled?" style="shape=parallelogram;perimeter=parallelogramPerimeter;whiteSpace=wrap;html=1;fixedSize=1;" vertex="1" parent="1">
          <mxGeometry x="160" y="270" width="120" height="60" as="geometry" />
        </mxCell>
        <mxCell id="jwUTels5Vg4gQr-75ilC-3" value="Abort" style="ellipse;whiteSpace=wrap;html=1;aspect=fixed;" vertex="1" parent="1">
          <mxGeometry x="340" y="260" width="80" height="80" as="geometry" />
        </mxCell>
        <mxCell id="jwUTels5Vg4gQr-75ilC-13" value="" style="edgeStyle=orthogonalEdgeStyle;rounded=0;orthogonalLoop=1;jettySize=auto;html=1;" edge="1" parent="1" source="jwUTels5Vg4gQr-75ilC-10" target="jwUTels5Vg4gQr-75ilC-12">
          <mxGeometry relative="1" as="geometry" />
        </mxCell>
        <mxCell id="jwUTels5Vg4gQr-75ilC-10" value="Store Ban Information in Database" style="rounded=0;whiteSpace=wrap;html=1;" vertex="1" parent="1">
          <mxGeometry x="160" y="390" width="120" height="60" as="geometry" />
        </mxCell>
        <mxCell id="jwUTels5Vg4gQr-75ilC-12" value="Notify Mutual Guilds" style="shape=process;whiteSpace=wrap;html=1;backgroundOutline=1;" vertex="1" parent="1">
          <mxGeometry x="160" y="520" width="120" height="60" as="geometry" />
        </mxCell>
        <mxCell id="jwUTels5Vg4gQr-75ilC-15" value="This will notify the moderators all guilds that Xenia shares with the banned member" style="text;html=1;strokeColor=none;fillColor=none;align=left;verticalAlign=middle;whiteSpace=wrap;rounded=0;" vertex="1" parent="1">
          <mxGeometry x="300" y="535" width="180" height="30" as="geometry" />
        </mxCell>
        <mxCell id="jwUTels5Vg4gQr-75ilC-16" value="&lt;div style=&quot;&quot;&gt;&lt;span style=&quot;background-color: initial;&quot;&gt;- Guild Name&lt;/span&gt;&lt;/div&gt;&lt;div style=&quot;&quot;&gt;&lt;span style=&quot;background-color: initial;&quot;&gt;- Guild Id&lt;/span&gt;&lt;/div&gt;&lt;div style=&quot;&quot;&gt;&lt;span style=&quot;background-color: initial;&quot;&gt;- User Id&lt;/span&gt;&lt;/div&gt;&lt;div style=&quot;&quot;&gt;&lt;span style=&quot;background-color: initial;&quot;&gt;- Username&lt;/span&gt;&lt;/div&gt;&lt;div style=&quot;&quot;&gt;&lt;span style=&quot;background-color: initial;&quot;&gt;- Discriminator&lt;/span&gt;&lt;/div&gt;&lt;div style=&quot;&quot;&gt;&lt;span style=&quot;background-color: initial;&quot;&gt;- Timestamp&lt;/span&gt;&lt;/div&gt;" style="text;html=1;strokeColor=none;fillColor=none;align=left;verticalAlign=middle;whiteSpace=wrap;rounded=0;" vertex="1" parent="1">
          <mxGeometry x="290" y="405" width="150" height="30" as="geometry" />
        </mxCell>
      </root>
    </mxGraphModel>
  </diagram>
</mxfile>
